{"title":"Ghesh El Zawgeya 2012 Arabic DVDRip X264 ACC - alrmothe","uid":8131713,"size":2042807054,"categoryP":"video","categoryS":"movies","magnet":"?xt=urn:btih:5d57a950f71294225fbe8f7174c3b40af90ded55&amp;dn=Ghesh+El+Zawgeya+2012+Arabic+DVDRip+X264+ACC+-+alrmothe&amp;tr=udp%3A%2F%2Ftracker.openbittorrent.com%3A80&amp;tr=udp%3A%2F%2Fopen.demonii.com%3A1337&amp;tr=udp%3A%2F%2Ftracker.coppersurfer.tk%3A6969&amp;tr=udp%3A%2F%2Fexodus.desync.com%3A6969","seeders":1,"leechers":0,"uploader":".alrmothe","files":23,"time":1360617899,"description":"*********************************************************\n \nGhesh El Zawgeya 2012  Arabic DVDRip X264 ACC - alrmothe \n\n*********************************************************\n\nTiTLE: Asad and 4Cats\nYEAR:2012\nGENRE : Comedy\nelcinema URL : http://www.elcinema.com/work/wk2006532/\nSIZE : 1.90 GB\nFormat : mp4 \nOverall bit rate:2483 Kbps\nSub: No \n*********************************************************\n\nVideo\nFormat : AVC\nFormat/Info : Advanced Video Codec\nFormat profile : &lt;a class=&quot;__cf_email__&quot; href=&quot;/cdn-cgi/l/email-protection&quot; data-cfemail=&quot;044c6d636c4448372a34&quot;&gt;[email&amp;#160;protected]&lt;/a&gt;&lt;script cf-hash='f9e31' type=&quot;text/javascript&quot;&gt;\n/* &lt;![CDATA[ */!function(){try{var t=&quot;currentScript&quot;in document?document.currentScript:function(){for(var t=document.getElementsByTagName(&quot;script&quot;),e=t.length;e--;)if(t[e].getAttribute(&quot;cf-hash&quot;))return t[e]}();if(t&amp;&amp;t.previousSibling){var e,r,n,i,c=t.previousSibling,a=c.getAttribute(&quot;data-cfemail&quot;);if(a){for(e=&quot;&quot;,r=parseInt(a.substr(0,2),16),n=2;a.length-n;n+=2)i=parseInt(a.substr(n,2),16)^r,e+=String.fromCharCode(i);e=document.createTextNode(e),c.parentNode.replaceChild(e,c)}}}catch(u){}}();/* ]]&gt; */&lt;/script&gt;\nRuntime: 1h 46min 2sec\nbit rate: 1820 Kbps\nWidth: 718 pixels\nHeight: 360 pixels\nFrame rate: 29.970 fps\nBit depth : 8 bits\nBits/(Pixel*Frame) : 0.295\nStream size : 1.75 GiB (92%)\n\nAudio: Arabic\nFormat: ACC\nBit rate: 192 Kbps\nSampling rate: 48.0 KHz\nChannel(s): 2 channels\nStream size : 150 MiB (8%)\nLanguage : Arabic\n*********************************************************\n\nScreenshots &lt;a href=&quot;\nhttp://img687.imageshack.us/img687/9593/vlcsnap2013021122h35m17.png&quot; rel=&quot;nofollow&quot; target=&quot;_NEW&quot;&gt;\nhttp://img687.imageshack.us/img687/9593/vlcsnap2013021122h35m17.png&lt;/a&gt; &lt;a href=&quot;\nhttp://img829.imageshack.us/img829/6638/vlcsnap2013021122h37m20.png&quot; rel=&quot;nofollow&quot; target=&quot;_NEW&quot;&gt;\nhttp://img829.imageshack.us/img829/6638/vlcsnap2013021122h37m20.png&lt;/a&gt; &lt;a href=&quot;\nhttp://img820.imageshack.us/img820/5363/vlcsnap2013021122h39m32.png&quot; rel=&quot;nofollow&quot; target=&quot;_NEW&quot;&gt;\nhttp://img820.imageshack.us/img820/5363/vlcsnap2013021122h39m32.png&lt;/a&gt; &lt;a href=&quot;\nhttp://img805.imageshack.us/img805/2368/gheshelzawgeya2012arabi.png&quot; rel=&quot;nofollow&quot; target=&quot;_NEW&quot;&gt;\nhttp://img805.imageshack.us/img805/2368/gheshelzawgeya2012arabi.png&lt;/a&gt;","torrent":{"xt":"urn:btih:5d57a950f71294225fbe8f7174c3b40af90ded55","amp;dn":"Ghesh+El+Zawgeya+2012+Arabic+DVDRip+X264+ACC+-+alrmothe","amp;tr":["udp%3A%2F%2Ftracker.openbittorrent.com%3A80","udp%3A%2F%2Fopen.demonii.com%3A1337","udp%3A%2F%2Ftracker.coppersurfer.tk%3A6969","udp%3A%2F%2Fexodus.desync.com%3A6969"],"infoHash":"5d57a950f71294225fbe8f7174c3b40af90ded55","infoHashBuffer":{"type":"Buffer","data":[93,87,169,80,247,18,148,34,95,190,143,113,116,195,180,10,249,13,237,85]},"announce":[],"urlList":[]}}